<mxfile host="Electron" agent="Mozilla/5.0 (Windows NT 10.0; Win64; x64) AppleWebKit/537.36 (KHTML, like Gecko) draw.io/26.0.16 Chrome/132.0.6834.196 Electron/34.2.0 Safari/537.36" version="26.0.16">
  <diagram name="Page-1" id="U5Cb6steh4Q2HBK5ESGT">
    <mxGraphModel dx="1450" dy="669" grid="0" gridSize="10" guides="1" tooltips="1" connect="1" arrows="1" fold="1" page="0" pageScale="1" pageWidth="1169" pageHeight="827" math="1" shadow="0">
      <root>
        <mxCell id="0" />
        <mxCell id="1" parent="0" />
        <mxCell id="ySUKEu3kJeWTp5fgsGx3-3" value="&lt;font&gt;$$b_j^-=Q$$&lt;/font&gt;" style="text;html=1;align=center;verticalAlign=middle;whiteSpace=wrap;rounded=0;fontSize=20;" parent="1" vertex="1">
          <mxGeometry x="346" y="30" width="67" height="61" as="geometry" />
        </mxCell>
        <mxCell id="ySUKEu3kJeWTp5fgsGx3-49" value="" style="group" parent="1" vertex="1" connectable="0">
          <mxGeometry x="-178" y="50" width="654" height="205" as="geometry" />
        </mxCell>
        <mxCell id="khiPyR2nCfbnRA5xmnjv-3" value="" style="edgeStyle=none;curved=1;rounded=0;orthogonalLoop=1;jettySize=auto;html=1;fontSize=12;startSize=8;endSize=8;exitX=1;exitY=1;exitDx=0;exitDy=0;entryX=0;entryY=1;entryDx=0;entryDy=0;startArrow=none;startFill=0;strokeWidth=2;" parent="ySUKEu3kJeWTp5fgsGx3-49" source="khiPyR2nCfbnRA5xmnjv-1" target="khiPyR2nCfbnRA5xmnjv-2" edge="1">
          <mxGeometry relative="1" as="geometry" />
        </mxCell>
        <mxCell id="khiPyR2nCfbnRA5xmnjv-1" value="" style="ellipse;whiteSpace=wrap;html=1;aspect=fixed;strokeWidth=2;" parent="ySUKEu3kJeWTp5fgsGx3-49" vertex="1">
          <mxGeometry x="105" y="70" width="58" height="58" as="geometry" />
        </mxCell>
        <mxCell id="khiPyR2nCfbnRA5xmnjv-10" value="" style="edgeStyle=none;curved=1;rounded=0;orthogonalLoop=1;jettySize=auto;html=1;fontSize=12;endArrow=none;startFill=0;strokeWidth=1.5;strokeColor=#808080;" parent="ySUKEu3kJeWTp5fgsGx3-49" edge="1">
          <mxGeometry relative="1" as="geometry">
            <mxPoint x="590" y="35" as="sourcePoint" />
            <mxPoint x="590" y="155" as="targetPoint" />
          </mxGeometry>
        </mxCell>
        <mxCell id="khiPyR2nCfbnRA5xmnjv-2" value="" style="ellipse;whiteSpace=wrap;html=1;aspect=fixed;strokeWidth=2;" parent="ySUKEu3kJeWTp5fgsGx3-49" vertex="1">
          <mxGeometry x="532" y="70" width="58" height="58" as="geometry" />
        </mxCell>
        <mxCell id="khiPyR2nCfbnRA5xmnjv-4" value="" style="edgeStyle=none;curved=1;rounded=0;orthogonalLoop=1;jettySize=auto;html=1;fontSize=12;startSize=8;endSize=8;exitX=0;exitY=0;exitDx=0;exitDy=0;entryX=1;entryY=0;entryDx=0;entryDy=0;dashed=1;dashPattern=8 8;strokeWidth=2;startArrow=classic;startFill=0;endArrow=none;" parent="ySUKEu3kJeWTp5fgsGx3-49" source="khiPyR2nCfbnRA5xmnjv-2" target="khiPyR2nCfbnRA5xmnjv-1" edge="1">
          <mxGeometry relative="1" as="geometry">
            <mxPoint x="236" y="-6" as="sourcePoint" />
            <mxPoint x="583" y="-6" as="targetPoint" />
          </mxGeometry>
        </mxCell>
        <mxCell id="khiPyR2nCfbnRA5xmnjv-5" value="&lt;font style=&quot;font-size: 35px;&quot;&gt;a)&lt;/font&gt;" style="text;html=1;align=center;verticalAlign=middle;whiteSpace=wrap;rounded=0;" parent="ySUKEu3kJeWTp5fgsGx3-49" vertex="1">
          <mxGeometry y="84" width="60" height="30" as="geometry" />
        </mxCell>
        <mxCell id="khiPyR2nCfbnRA5xmnjv-11" value="" style="edgeStyle=none;curved=1;rounded=0;orthogonalLoop=1;jettySize=auto;html=1;fontSize=12;endArrow=none;startFill=0;strokeWidth=1.5;strokeColor=#808080;" parent="ySUKEu3kJeWTp5fgsGx3-49" edge="1">
          <mxGeometry relative="1" as="geometry">
            <mxPoint x="532" y="33" as="sourcePoint" />
            <mxPoint x="532" y="153" as="targetPoint" />
          </mxGeometry>
        </mxCell>
        <mxCell id="khiPyR2nCfbnRA5xmnjv-12" value="" style="edgeStyle=none;curved=1;rounded=0;orthogonalLoop=1;jettySize=auto;html=1;fontSize=12;endArrow=none;startFill=0;strokeWidth=1.5;strokeColor=#808080;" parent="ySUKEu3kJeWTp5fgsGx3-49" edge="1">
          <mxGeometry relative="1" as="geometry">
            <mxPoint x="163" y="44" as="sourcePoint" />
            <mxPoint x="163" y="164" as="targetPoint" />
          </mxGeometry>
        </mxCell>
        <mxCell id="khiPyR2nCfbnRA5xmnjv-13" value="&lt;font&gt;$$b_i^+$$&lt;/font&gt;" style="text;html=1;align=center;verticalAlign=middle;whiteSpace=wrap;rounded=0;fontSize=20;" parent="ySUKEu3kJeWTp5fgsGx3-49" vertex="1">
          <mxGeometry x="137" width="67" height="61" as="geometry" />
        </mxCell>
        <mxCell id="ySUKEu3kJeWTp5fgsGx3-4" value="&lt;font&gt;$$b_j^+=Q$$&lt;/font&gt;" style="text;html=1;align=center;verticalAlign=middle;whiteSpace=wrap;rounded=0;fontSize=20;" parent="ySUKEu3kJeWTp5fgsGx3-49" vertex="1">
          <mxGeometry x="587" y="144" width="67" height="61" as="geometry" />
        </mxCell>
        <mxCell id="ySUKEu3kJeWTp5fgsGx3-5" value="&lt;font&gt;$$i$$&lt;/font&gt;" style="text;html=1;align=center;verticalAlign=middle;whiteSpace=wrap;rounded=0;fontSize=20;" parent="ySUKEu3kJeWTp5fgsGx3-49" vertex="1">
          <mxGeometry x="100.5" y="68.5" width="67" height="61" as="geometry" />
        </mxCell>
        <mxCell id="ySUKEu3kJeWTp5fgsGx3-6" value="&lt;font&gt;$$j$$&lt;/font&gt;" style="text;html=1;align=center;verticalAlign=middle;whiteSpace=wrap;rounded=0;fontSize=20;" parent="ySUKEu3kJeWTp5fgsGx3-49" vertex="1">
          <mxGeometry x="527.5" y="68.5" width="67" height="61" as="geometry" />
        </mxCell>
        <mxCell id="ySUKEu3kJeWTp5fgsGx3-50" value="" style="group" parent="1" vertex="1" connectable="0">
          <mxGeometry x="-178" y="347" width="655" height="220" as="geometry" />
        </mxCell>
        <mxCell id="ySUKEu3kJeWTp5fgsGx3-8" value="" style="ellipse;whiteSpace=wrap;html=1;aspect=fixed;strokeWidth=2;" parent="ySUKEu3kJeWTp5fgsGx3-50" vertex="1">
          <mxGeometry x="105" y="85" width="58" height="58" as="geometry" />
        </mxCell>
        <mxCell id="ySUKEu3kJeWTp5fgsGx3-9" value="" style="edgeStyle=none;curved=1;rounded=0;orthogonalLoop=1;jettySize=auto;html=1;fontSize=12;endArrow=none;startFill=0;strokeWidth=1.5;strokeColor=#808080;" parent="ySUKEu3kJeWTp5fgsGx3-50" edge="1">
          <mxGeometry relative="1" as="geometry">
            <mxPoint x="590" y="50" as="sourcePoint" />
            <mxPoint x="590" y="170" as="targetPoint" />
          </mxGeometry>
        </mxCell>
        <mxCell id="ySUKEu3kJeWTp5fgsGx3-10" value="" style="ellipse;whiteSpace=wrap;html=1;aspect=fixed;strokeWidth=2;" parent="ySUKEu3kJeWTp5fgsGx3-50" vertex="1">
          <mxGeometry x="532" y="85" width="58" height="58" as="geometry" />
        </mxCell>
        <mxCell id="ySUKEu3kJeWTp5fgsGx3-11" value="" style="edgeStyle=none;curved=1;rounded=0;orthogonalLoop=1;jettySize=auto;html=1;fontSize=12;startSize=8;endSize=8;exitX=0;exitY=0;exitDx=0;exitDy=0;entryX=1;entryY=0;entryDx=0;entryDy=0;dashed=1;dashPattern=8 8;strokeWidth=2;endArrow=none;startFill=1;startArrow=classic;" parent="ySUKEu3kJeWTp5fgsGx3-50" source="ySUKEu3kJeWTp5fgsGx3-10" target="ySUKEu3kJeWTp5fgsGx3-8" edge="1">
          <mxGeometry relative="1" as="geometry">
            <mxPoint x="236" y="9" as="sourcePoint" />
            <mxPoint x="583" y="9" as="targetPoint" />
          </mxGeometry>
        </mxCell>
        <mxCell id="ySUKEu3kJeWTp5fgsGx3-12" value="&lt;font style=&quot;font-size: 35px;&quot;&gt;b)&lt;/font&gt;" style="text;html=1;align=center;verticalAlign=middle;whiteSpace=wrap;rounded=0;" parent="ySUKEu3kJeWTp5fgsGx3-50" vertex="1">
          <mxGeometry y="99" width="60" height="30" as="geometry" />
        </mxCell>
        <mxCell id="ySUKEu3kJeWTp5fgsGx3-13" value="" style="edgeStyle=none;curved=1;rounded=0;orthogonalLoop=1;jettySize=auto;html=1;fontSize=12;endArrow=none;startFill=0;strokeWidth=1.5;strokeColor=#808080;" parent="ySUKEu3kJeWTp5fgsGx3-50" edge="1">
          <mxGeometry relative="1" as="geometry">
            <mxPoint x="532" y="48" as="sourcePoint" />
            <mxPoint x="532" y="168" as="targetPoint" />
          </mxGeometry>
        </mxCell>
        <mxCell id="ySUKEu3kJeWTp5fgsGx3-14" value="" style="edgeStyle=none;curved=1;rounded=0;orthogonalLoop=1;jettySize=auto;html=1;fontSize=12;endArrow=none;startFill=0;strokeWidth=1.5;strokeColor=#808080;" parent="ySUKEu3kJeWTp5fgsGx3-50" edge="1">
          <mxGeometry relative="1" as="geometry">
            <mxPoint x="163" y="59" as="sourcePoint" />
            <mxPoint x="163" y="179" as="targetPoint" />
          </mxGeometry>
        </mxCell>
        <mxCell id="ySUKEu3kJeWTp5fgsGx3-15" value="&lt;font&gt;$$b_i^+$$&lt;/font&gt;" style="text;html=1;align=center;verticalAlign=middle;whiteSpace=wrap;rounded=0;fontSize=20;" parent="ySUKEu3kJeWTp5fgsGx3-50" vertex="1">
          <mxGeometry x="139" y="15" width="67" height="61" as="geometry" />
        </mxCell>
        <mxCell id="ySUKEu3kJeWTp5fgsGx3-16" value="&lt;font&gt;$$b_j^-=b_i^+-T_{ij}^D$$&lt;/font&gt;" style="text;html=1;align=center;verticalAlign=middle;whiteSpace=wrap;rounded=0;fontSize=20;" parent="ySUKEu3kJeWTp5fgsGx3-50" vertex="1">
          <mxGeometry x="557" width="67" height="61" as="geometry" />
        </mxCell>
        <mxCell id="ySUKEu3kJeWTp5fgsGx3-17" value="&lt;font&gt;$$b_j^+=b_j^-$$&lt;/font&gt;" style="text;html=1;align=center;verticalAlign=middle;whiteSpace=wrap;rounded=0;fontSize=20;" parent="ySUKEu3kJeWTp5fgsGx3-50" vertex="1">
          <mxGeometry x="588" y="159" width="67" height="61" as="geometry" />
        </mxCell>
        <mxCell id="ySUKEu3kJeWTp5fgsGx3-18" value="&lt;font&gt;$$i$$&lt;/font&gt;" style="text;html=1;align=center;verticalAlign=middle;whiteSpace=wrap;rounded=0;fontSize=20;" parent="ySUKEu3kJeWTp5fgsGx3-50" vertex="1">
          <mxGeometry x="100.5" y="83.5" width="67" height="61" as="geometry" />
        </mxCell>
        <mxCell id="ySUKEu3kJeWTp5fgsGx3-19" value="&lt;font&gt;$$j$$&lt;/font&gt;" style="text;html=1;align=center;verticalAlign=middle;whiteSpace=wrap;rounded=0;fontSize=20;" parent="ySUKEu3kJeWTp5fgsGx3-50" vertex="1">
          <mxGeometry x="527.5" y="83.5" width="67" height="61" as="geometry" />
        </mxCell>
        <mxCell id="ySUKEu3kJeWTp5fgsGx3-62" value="" style="group" parent="1" vertex="1" connectable="0">
          <mxGeometry x="612" y="110" width="655" height="302" as="geometry" />
        </mxCell>
        <mxCell id="ySUKEu3kJeWTp5fgsGx3-33" value="" style="ellipse;whiteSpace=wrap;html=1;aspect=fixed;strokeWidth=2;" parent="ySUKEu3kJeWTp5fgsGx3-62" vertex="1">
          <mxGeometry x="105" y="85" width="58" height="58" as="geometry" />
        </mxCell>
        <mxCell id="ySUKEu3kJeWTp5fgsGx3-34" value="" style="edgeStyle=none;curved=1;rounded=0;orthogonalLoop=1;jettySize=auto;html=1;fontSize=12;endArrow=none;startFill=0;strokeWidth=1.5;strokeColor=#808080;" parent="ySUKEu3kJeWTp5fgsGx3-62" edge="1">
          <mxGeometry relative="1" as="geometry">
            <mxPoint x="590" y="50" as="sourcePoint" />
            <mxPoint x="590" y="170" as="targetPoint" />
          </mxGeometry>
        </mxCell>
        <mxCell id="ySUKEu3kJeWTp5fgsGx3-35" value="" style="ellipse;whiteSpace=wrap;html=1;aspect=fixed;strokeWidth=2;" parent="ySUKEu3kJeWTp5fgsGx3-62" vertex="1">
          <mxGeometry x="532" y="85" width="58" height="58" as="geometry" />
        </mxCell>
        <mxCell id="ySUKEu3kJeWTp5fgsGx3-36" value="" style="edgeStyle=none;curved=1;rounded=0;orthogonalLoop=1;jettySize=auto;html=1;fontSize=12;startSize=8;endSize=8;exitX=0;exitY=0;exitDx=0;exitDy=0;entryX=1;entryY=0;entryDx=0;entryDy=0;dashed=1;dashPattern=8 8;strokeWidth=2;endArrow=none;startFill=1;startArrow=classic;" parent="ySUKEu3kJeWTp5fgsGx3-62" source="ySUKEu3kJeWTp5fgsGx3-35" target="ySUKEu3kJeWTp5fgsGx3-33" edge="1">
          <mxGeometry relative="1" as="geometry">
            <mxPoint x="236" y="9" as="sourcePoint" />
            <mxPoint x="583" y="9" as="targetPoint" />
          </mxGeometry>
        </mxCell>
        <mxCell id="ySUKEu3kJeWTp5fgsGx3-37" value="&lt;font style=&quot;font-size: 35px;&quot;&gt;c)&lt;/font&gt;" style="text;html=1;align=center;verticalAlign=middle;whiteSpace=wrap;rounded=0;" parent="ySUKEu3kJeWTp5fgsGx3-62" vertex="1">
          <mxGeometry y="175" width="60" height="30" as="geometry" />
        </mxCell>
        <mxCell id="ySUKEu3kJeWTp5fgsGx3-38" value="" style="edgeStyle=none;curved=1;rounded=0;orthogonalLoop=1;jettySize=auto;html=1;fontSize=12;endArrow=none;startFill=0;strokeWidth=1.5;strokeColor=#808080;" parent="ySUKEu3kJeWTp5fgsGx3-62" edge="1">
          <mxGeometry relative="1" as="geometry">
            <mxPoint x="532" y="48" as="sourcePoint" />
            <mxPoint x="532" y="168" as="targetPoint" />
          </mxGeometry>
        </mxCell>
        <mxCell id="ySUKEu3kJeWTp5fgsGx3-39" value="" style="edgeStyle=none;curved=1;rounded=0;orthogonalLoop=1;jettySize=auto;html=1;fontSize=12;endArrow=none;startFill=0;strokeWidth=1.5;strokeColor=#808080;" parent="ySUKEu3kJeWTp5fgsGx3-62" edge="1">
          <mxGeometry relative="1" as="geometry">
            <mxPoint x="163" y="59" as="sourcePoint" />
            <mxPoint x="163" y="179" as="targetPoint" />
          </mxGeometry>
        </mxCell>
        <mxCell id="ySUKEu3kJeWTp5fgsGx3-40" value="&lt;font&gt;$$b_i^+$$&lt;/font&gt;" style="text;html=1;align=center;verticalAlign=middle;whiteSpace=wrap;rounded=0;fontSize=20;" parent="ySUKEu3kJeWTp5fgsGx3-62" vertex="1">
          <mxGeometry x="139" y="15" width="67" height="61" as="geometry" />
        </mxCell>
        <mxCell id="ySUKEu3kJeWTp5fgsGx3-41" value="&lt;font&gt;$$b_j^-=b_i^+-T_{ij}^D$$&lt;/font&gt;" style="text;html=1;align=center;verticalAlign=middle;whiteSpace=wrap;rounded=0;fontSize=20;" parent="ySUKEu3kJeWTp5fgsGx3-62" vertex="1">
          <mxGeometry x="557" width="67" height="61" as="geometry" />
        </mxCell>
        <mxCell id="ySUKEu3kJeWTp5fgsGx3-42" value="&lt;font&gt;$$b_j^+=Q$$&lt;/font&gt;" style="text;html=1;align=center;verticalAlign=middle;whiteSpace=wrap;rounded=0;fontSize=20;" parent="ySUKEu3kJeWTp5fgsGx3-62" vertex="1">
          <mxGeometry x="588" y="159" width="67" height="61" as="geometry" />
        </mxCell>
        <mxCell id="ySUKEu3kJeWTp5fgsGx3-43" value="&lt;font&gt;$$i$$&lt;/font&gt;" style="text;html=1;align=center;verticalAlign=middle;whiteSpace=wrap;rounded=0;fontSize=20;" parent="ySUKEu3kJeWTp5fgsGx3-62" vertex="1">
          <mxGeometry x="100.5" y="83.5" width="67" height="61" as="geometry" />
        </mxCell>
        <mxCell id="ySUKEu3kJeWTp5fgsGx3-44" value="&lt;font&gt;$$j$$&lt;/font&gt;" style="text;html=1;align=center;verticalAlign=middle;whiteSpace=wrap;rounded=0;fontSize=20;" parent="ySUKEu3kJeWTp5fgsGx3-62" vertex="1">
          <mxGeometry x="527.5" y="83.5" width="67" height="61" as="geometry" />
        </mxCell>
        <mxCell id="ySUKEu3kJeWTp5fgsGx3-46" value="" style="ellipse;whiteSpace=wrap;html=1;aspect=fixed;strokeWidth=2;" parent="ySUKEu3kJeWTp5fgsGx3-62" vertex="1">
          <mxGeometry x="105" y="242.5" width="58" height="58" as="geometry" />
        </mxCell>
        <mxCell id="ySUKEu3kJeWTp5fgsGx3-47" value="&lt;font&gt;$$k$$&lt;/font&gt;" style="text;html=1;align=center;verticalAlign=middle;whiteSpace=wrap;rounded=0;fontSize=20;" parent="ySUKEu3kJeWTp5fgsGx3-62" vertex="1">
          <mxGeometry x="100.5" y="241" width="67" height="61" as="geometry" />
        </mxCell>
        <mxCell id="ySUKEu3kJeWTp5fgsGx3-48" value="" style="edgeStyle=none;curved=1;rounded=0;orthogonalLoop=1;jettySize=auto;html=1;fontSize=12;startSize=8;endSize=8;exitX=1;exitY=0.5;exitDx=0;exitDy=0;startArrow=none;startFill=0;strokeWidth=2;" parent="ySUKEu3kJeWTp5fgsGx3-62" source="ySUKEu3kJeWTp5fgsGx3-47" edge="1">
          <mxGeometry relative="1" as="geometry">
            <mxPoint x="167.5" y="383" as="sourcePoint" />
            <mxPoint x="543" y="137" as="targetPoint" />
          </mxGeometry>
        </mxCell>
        <mxCell id="ySUKEu3kJeWTp5fgsGx3-65" value="" style="group" parent="1" vertex="1" connectable="0">
          <mxGeometry x="633" y="569" width="597" height="65" as="geometry" />
        </mxCell>
        <mxCell id="ySUKEu3kJeWTp5fgsGx3-52" value="&lt;span style=&quot;font-size: 35px;&quot;&gt;无人机经过的弧&lt;/span&gt;" style="text;html=1;align=center;verticalAlign=middle;whiteSpace=wrap;rounded=0;" parent="ySUKEu3kJeWTp5fgsGx3-65" vertex="1">
          <mxGeometry x="89" width="508" height="65" as="geometry" />
        </mxCell>
        <mxCell id="ySUKEu3kJeWTp5fgsGx3-56" value="" style="edgeStyle=none;curved=1;rounded=0;orthogonalLoop=1;jettySize=auto;html=1;fontSize=12;startSize=8;endSize=8;exitX=0;exitY=0;exitDx=0;exitDy=0;dashed=1;dashPattern=8 8;strokeWidth=2;endArrow=none;startFill=1;startArrow=classic;" parent="ySUKEu3kJeWTp5fgsGx3-65" edge="1">
          <mxGeometry relative="1" as="geometry">
            <mxPoint x="193" y="31.970000000000027" as="sourcePoint" />
            <mxPoint y="32" as="targetPoint" />
          </mxGeometry>
        </mxCell>
        <mxCell id="ySUKEu3kJeWTp5fgsGx3-66" value="" style="group" parent="1" vertex="1" connectable="0">
          <mxGeometry x="-83" y="573.5" width="575" height="56" as="geometry" />
        </mxCell>
        <mxCell id="ySUKEu3kJeWTp5fgsGx3-53" value="&lt;span style=&quot;font-size: 35px;&quot;&gt;卡车经过的弧&lt;/span&gt;" style="text;html=1;align=center;verticalAlign=middle;whiteSpace=wrap;rounded=0;" parent="ySUKEu3kJeWTp5fgsGx3-66" vertex="1">
          <mxGeometry x="67" width="508" height="56" as="geometry" />
        </mxCell>
        <mxCell id="ySUKEu3kJeWTp5fgsGx3-55" value="" style="edgeStyle=none;curved=1;rounded=0;orthogonalLoop=1;jettySize=auto;html=1;fontSize=12;startSize=8;endSize=8;entryX=0;entryY=1;entryDx=0;entryDy=0;startArrow=none;startFill=0;strokeWidth=2;" parent="ySUKEu3kJeWTp5fgsGx3-66" edge="1">
          <mxGeometry relative="1" as="geometry">
            <mxPoint y="27" as="sourcePoint" />
            <mxPoint x="194" y="27.470000000000027" as="targetPoint" />
          </mxGeometry>
        </mxCell>
      </root>
    </mxGraphModel>
  </diagram>
</mxfile>
